PathFileType	4	(X/Y/Z)	C:/Users/opensim2020/Desktop/walking_exp_matlab/subject02_walking12_straight_01.trc																																																																																																																												
DataRate	CameraRate	NumFrames	NumMarkers	Units	OrigDataRate	OrigDataStartFrame	OrigNumFrames																																																																																																																								
100	100	9	42	mm	100	652	178																																																																																																																								
Frame#	Time	LFHD			RFHD			LBHD			RBHD			C7			T10			CLAV			STRN			RBAK			LSHO			LUPA			LELB			LFRM			LWRA			LWRB			LFIN			RSHO			RUPA			RELB			RFRM			RWRA			RWRB			RFIN			LASI			RASI			LPSI			RPSI			LTHI			LKNE			LTIB			LANK			LHEE			LTOE			RTHI			RKNE			RTIB			RANK			RHEE			RTOE			*39			*40			*41		
		X1	Y1	Z1	X2	Y2	Z2	X3	Y3	Z3	X4	Y4	Z4	X5	Y5	Z5	X6	Y6	Z6	X7	Y7	Z7	X8	Y8	Z8	X9	Y9	Z9	X10	Y10	Z10	X11	Y11	Z11	X12	Y12	Z12	X13	Y13	Z13	X14	Y14	Z14	X15	Y15	Z15	X16	Y16	Z16	X17	Y17	Z17	X18	Y18	Z18	X19	Y19	Z19	X20	Y20	Z20	X21	Y21	Z21	X22	Y22	Z22	X23	Y23	Z23	X24	Y24	Z24	X25	Y25	Z25	X26	Y26	Z26	X27	Y27	Z27	X28	Y28	Z28	X29	Y29	Z29	X30	Y30	Z30	X31	Y31	Z31	X32	Y32	Z32	X33	Y33	Z33	X34	Y34	Z34	X35	Y35	Z35	X36	Y36	Z36	X37	Y37	Z37	X38	Y38	Z38	X39	Y39	Z39	X40	Y40	Z40	X41	Y41	Z41	X42	Y42	Z42
																																																																																																																															
156	1.55	664.64856	1740.66577	-1046.49414	623.60004	1715.54199	-909.39227	543.78107	1664.67444	-1095.66492	491.4476	1638.3075	-963.8985	469.4375	1520.31152	-1026.5249	418.94446	1243.43872	-1016.62238	610.62598	1453.95691	-1030.35779	662.6582	1282.85583	-1011.78607	410.37662	1347.9657	-957.86127	545.50458	1488.96692	-1202.4353	484.72607	1297.41028	-1278.56958	442.57733	1164.21558	-1285.28015	404.84692	1039.44788	-1301.00183	405.23376	900.67267	-1268.62024	369.20493	921.14612	-1307.3905	357.34454	854.24353	-1307.37292	538.64191	1494.99561	-837.7431	528.17529	1311.99231	-739.08539	563.91669	1167.7677	-708.9632	633.07446	1066.29395	-700.10522	721.46704	968.58624	-731.29785	682.90631	945.82855	-695.87573	742.42297	904.75879	-698.40277	664.43591	987.63367	-1132.07507	634.11737	965.42175	-876.80933	446.46085	1029.81787	-1074.12073	429.29465	1027.58923	-960.5191	667.9729	689.19666	-1213.99634	712.42249	496.36566	-1189.02563	722.0918	302.8815	-1199.43176	806.53772	90.76774	-1184.62317	783.22968	51.5549	-1133.72412	963.27136	103.67294	-1190.58203	517.40759	658.09308	-849.65717	482.173	453.48233	-908.55396	404.34604	280.65207	-915.06891	347.95996	97.8488	-968.32361	305.50745	48.16232	-1026.84644	493.22601	39.51449	-953.90686	539.5575	1800.4585	-987.10309	2845.22803	1034.27271	-3360.38867	NaN	NaN	NaN
157	1.56	677.34985	1738.76233	-1046.83801	636.20227	1713.86963	-910.02161	556.98395	1662.04883	-1096.09753	504.97665	1635.72827	-964.04926	482.97266	1518.17126	-1026.46033	432.33377	1241.53699	-1017.64655	624.27429	1451.67273	-1030.10266	675.97717	1280.5498	-1011.03149	423.56259	1345.83276	-958.38495	559.42194	1486.776	-1202.42236	495.40924	1296.49292	-1278.40955	451.03082	1164.1051	-1284.78088	410.67618	1040.1853	-1300.41895	408.22723	901.13385	-1268.21411	372.3988	922.5177	-1306.68738	358.95868	855.82935	-1306.66138	551.6571	1492.97144	-837.67145	541.76208	1310.37708	-738.48621	578.23749	1166.43689	-707.81885	649.59351	1066.29114	-699.4931	740.03918	970.58105	-731.0069	702.28577	946.71448	-695.68152	762.14447	907.13336	-698.42206	679.13367	985.125	-1131.36719	645.0545	963.38501	-876.29236	460.12881	1026.72827	-1075.11096	441.57471	1024.64929	-962.12122	680.18542	687.04944	-1214.9491	728.80072	494.68399	-1189.60034	745.80499	302.00745	-1201.00732	837.74237	92.85223	-1185.97375	814.47003	52.20216	-1135.77881	994.30682	110.75952	-1186.8324	524.68335	656.94995	-849.38867	487.49457	452.76779	-908.42242	406.76071	281.27432	-915.41278	348.63293	98.99444	-969.13831	306.31226	49.52335	-1028.23901	493.4097	39.4768	-953.70209	551.86121	1798.18677	-987.9455	2845.24536	1034.16663	-3360.43506	NaN	NaN	NaN
158	1.57	690.11115	1736.83569	-1047.34436	649.01801	1712.1947	-910.16858	570.19128	1659.30847	-1096.43188	518.02966	1633.22314	-964.49646	496.36826	1515.93396	-1026.63354	445.70056	1239.33264	-1018.60992	637.93262	1449.27917	-1029.91614	689.26385	1278.09106	-1010.36963	436.68231	1343.7074	-958.90503	573.23743	1484.26074	-1202.27039	506.45117	1295.27405	-1277.59375	459.86099	1163.49573	-1283.72046	416.96213	1040.66357	-1299.896	411.84195	901.573	-1267.89282	376.44531	923.70728	-1306.12134	361.53473	857.36401	-1305.99963	564.81018	1490.71472	-837.71454	554.92578	1308.30212	-738.07874	592.48718	1164.69348	-706.67993	665.59924	1065.82336	-698.83575	757.89868	972.21906	-730.93231	720.60889	947.40149	-695.77515	781.37091	909.11993	-698.78949	693.94836	982.86578	-1130.62915	657.60278	961.91943	-875.3125	473.9426	1023.59723	-1076.13147	453.9201	1021.70343	-963.6662	693.51166	685.27545	-1215.87805	745.88062	493.19025	-1190.06555	768.49512	301.37277	-1202.83716	866.59991	94.81847	-1187.22021	842.75848	53.1144	-1138.32227	1022.65894	116.66455	-1183.13696	532.16425	655.81812	-849.32141	493.00992	452.0463	-908.33942	409.46875	281.8204	-916.24463	349.42203	100.14925	-970.1629	307.00461	51.14567	-1029.7572	493.55722	39.36309	-953.52228	564.32062	1795.95276	-988.75299	2845.17285	1034.1825	-3360.38257	NaN	NaN	NaN
159	1.58	702.8291	1734.75708	-1047.86902	661.65479	1710.52332	-910.55603	583.44965	1656.55701	-1096.82922	530.86523	1630.37756	-964.50208	509.84628	1513.60229	-1026.7821	459.09457	1237.07495	-1019.51135	651.5368	1446.85657	-1029.76575	702.65375	1275.69336	-1009.82983	449.73892	1341.50427	-959.47241	587.22211	1481.87598	-1202.19666	517.90222	1294.13281	-1277.66614	469.17535	1163.00403	-1283.03796	423.98904	1041.11865	-1299.39734	416.69019	901.9436	-1267.73462	381.37311	924.82959	-1305.58997	365.08093	858.7359	-1305.30896	577.99915	1488.37439	-837.79175	568.31171	1306.28723	-737.66199	606.41663	1162.9552	-705.79498	681.27783	1065.32153	-698.48401	775.36053	973.63391	-730.92065	738.35498	947.93964	-695.93488	799.96936	910.89655	-698.92102	708.80731	980.8913	-1129.78845	669.75854	960.02948	-874.52277	487.90491	1020.62036	-1077.04968	466.39294	1018.90302	-965.26514	708.48712	683.71954	-1216.30725	763.50543	491.97098	-1190.4801	790.23761	300.9368	-1204.81616	892.82013	96.47217	-1188.5769	869.03296	53.2979	-1140.84485	1048.3667	120.97556	-1179.14148	539.64014	654.89044	-849.26984	499.08008	451.26706	-908.19318	412.73001	282.56509	-917.1123	350.37103	101.66942	-971.34088	308.08548	53.11265	-1031.43799	493.75491	39.25938	-953.36987	576.57666	1793.40356	-989.76355	2845.76807	1034.3125	-3357.34766	NaN	NaN	NaN
160	1.59	715.83075	1732.83997	-1048.30029	674.33374	1708.39111	-911.36993	596.72308	1653.80688	-1097.13232	544.04913	1628.06543	-965.29047	523.18158	1511.32886	-1026.93286	472.45184	1234.65442	-1020.26093	665.09918	1444.42566	-1029.64868	716.02557	1273.31165	-1009.38934	462.90671	1339.45642	-960.01978	601.14374	1479.43054	-1202.09705	529.62842	1292.65491	-1277.07251	479.08057	1162.43884	-1282.59277	431.77847	1041.49634	-1299.33862	422.46021	902.1875	-1267.76404	387.23074	925.79834	-1305.19775	369.56122	859.92218	-1304.70508	591.10309	1485.99194	-837.90546	581.36768	1303.90576	-737.51807	620.36578	1160.8905	-704.87573	696.85059	1064.46643	-698.07983	792.31183	974.78284	-730.92255	756.03418	948.16193	-695.91815	818.39087	912.58057	-698.97083	723.68408	979.23389	-1128.87488	681.7467	957.89807	-873.9884	502.22598	1017.87469	-1078.15063	479.02802	1016.39532	-966.88104	725.29175	682.45911	-1216.24268	781.77356	491.02463	-1190.75085	811.13995	300.70358	-1206.87793	916.27222	97.56705	-1189.91394	891.32928	53.67635	-1143.31506	1071.18298	123.66402	-1175.66467	547.56616	654.12976	-849.44824	505.65396	450.66702	-908.05975	416.41464	283.34589	-918.04364	351.40994	103.50307	-972.24939	309.08649	55.34393	-1032.5387	493.92886	39.17257	-953.23737	589.22369	1791.08313	-990.43848	2845.79053	1034.36951	-3357.40063	NaN	NaN	NaN
161	1.6	728.80432	1730.85266	-1048.71948	687.32941	1706.7323	-911.6228	610.03687	1651.22034	-1097.52051	557.48956	1625.22644	-965.599	536.54767	1508.99927	-1027.40088	485.97284	1232.60681	-1020.95966	678.78333	1442.10242	-1029.69824	729.47778	1271.03455	-1009.14423	476.10632	1337.37512	-960.64893	615.32831	1477.36255	-1202.39746	541.78461	1291.32947	-1277.19751	489.60098	1161.7146	-1282.17834	440.44	1041.38757	-1298.59827	429.18994	902.26593	-1267.83826	394.05704	926.52161	-1305.02161	375.07034	860.95422	-1304.18652	604.28333	1483.41895	-837.95453	594.7619	1301.64307	-737.43408	634.11084	1158.78723	-704.20642	711.99158	1063.46948	-697.61658	809.29602	975.70624	-730.96283	773.06122	948.27124	-696.05731	836.03497	913.9126	-699.16345	738.64697	977.77728	-1127.88281	694.33929	955.77979	-872.9436	516.66223	1015.43536	-1079.30518	491.9653	1014.19055	-968.50671	744.05322	681.62769	-1215.6947	800.47693	490.39145	-1190.9043	831.15533	300.66119	-1209.07068	936.69458	97.86845	-1191.18018	911.43604	52.97893	-1145.55078	1091.06104	124.69315	-1172.83752	555.8623	653.39319	-849.64276	513.29761	449.8587	-907.81799	420.67358	284.38766	-918.77509	352.6196	105.58643	-972.49457	310.02151	58.30426	-1033.23108	494.11844	39.05948	-952.98724	601.88129	1788.73596	-991.08478	2845.22705	1034.36401	-3360.28955	NaN	NaN	NaN
162	1.61	741.64746	1728.94336	-1049.02148	700.21643	1705.04993	-911.94141	623.35565	1648.81946	-1097.80615	570.77661	1622.91272	-965.92181	550.03278	1506.96423	-1027.64368	499.46729	1230.36719	-1021.58966	692.31781	1439.94116	-1029.7019	743.00183	1268.9646	-1009.01202	489.70532	1335.17871	-961.2298	629.30096	1475.11658	-1202.495	554.44946	1289.95715	-1277.25415	500.84167	1160.97681	-1282.21265	449.8233	1041.52258	-1298.73633	436.90732	902.21234	-1268.08057	401.93787	927.0661	-1304.98889	381.63416	861.69635	-1303.7168	617.53827	1481.02783	-838.12872	607.68323	1299.20691	-737.53839	647.59833	1156.67212	-703.78912	726.70129	1062.44336	-697.45856	825.17883	976.32831	-731.11993	789.46875	948.16052	-696.21686	853.07739	914.9964	-699.35547	753.76929	976.6535	-1126.89148	706.91943	953.46289	-872.25281	531.14832	1013.37494	-1080.578	506.02188	1012.1167	-970.2356	764.28674	681.40491	-1215.01575	819.09167	490.10962	-1191.02539	850.25934	300.74963	-1211.05042	954.30902	97.35126	-1192.35083	927.9975	52.02302	-1147.98572	1108.12646	123.97037	-1170.71045	564.93475	652.49457	-849.89258	521.10071	449.06683	-907.32983	425.21548	285.56665	-918.66193	353.90274	108.10964	-972.30774	310.93927	61.68278	-1033.15491	494.27292	38.89861	-952.76678	614.61737	1786.54822	-991.67358	2845.91113	1034.19629	-3357.22021	NaN	NaN	NaN
163	1.62	754.78638	1727.20752	-1049.24829	713.21381	1703.51941	-912.07758	636.68707	1646.63611	-1098.09766	583.88013	1621.04541	-966.14636	563.30267	1504.90186	-1028.40222	512.98047	1228.41907	-1022.22089	705.91162	1438.00134	-1029.81702	756.62994	1267.17993	-1008.97626	502.67847	1333.39478	-961.97827	643.33099	1473.18884	-1202.78052	567.36481	1288.39075	-1277.04785	512.66589	1159.94312	-1281.81189	460.43796	1041.21167	-1298.91907	445.71414	901.94714	-1268.33545	410.90759	927.36938	-1305.08459	389.35513	862.28516	-1303.39417	630.38593	1478.68298	-838.13708	620.55432	1296.84766	-737.85889	660.86554	1154.56653	-703.60168	741.23492	1061.26318	-697.4577	840.63342	976.5517	-731.05688	805.2973	947.88031	-696.64099	869.56171	915.80084	-699.51965	769.22571	975.72815	-1126.00928	719.81384	951.22589	-871.60944	545.93439	1011.59998	-1081.97449	519.85431	1010.25928	-971.85687	785.15369	681.77606	-1214.11169	837.73718	490.08063	-1191.14478	868.10571	300.74008	-1212.77039	969.40173	96.14932	-1193.54089	941.46985	50.87864	-1150.26965	1122.76221	121.53132	-1169.02319	575.159	651.72546	-849.87958	530.20496	448.34067	-906.5224	430.62051	286.83405	-918.18268	355.38181	111.02499	-971.56451	311.70313	65.58687	-1032.41565	494.48572	38.81975	-952.47363	627.38342	1784.45483	-992.14221	2845.24609	1034.26978	-3360.32739	NaN	NaN	NaN
164	1.63	767.87213	1725.59399	-1049.44666	726.17023	1701.95105	-912.2785	650.00244	1644.70483	-1098.38416	597.21472	1619.30249	-966.51483	576.74249	1503.15955	-1028.76123	526.68982	1226.70349	-1022.88739	719.45953	1436.27539	-1029.93457	770.25812	1265.56628	-1008.94232	516.35168	1331.32983	-962.68994	657.38159	1471.52734	-1203.20654	580.74939	1286.81726	-1277.19873	525.19916	1158.90747	-1281.75928	471.88037	1040.81873	-1299.18896	455.62778	901.58911	-1268.68372	421.1044	927.45819	-1305.34839	398.30743	862.64215	-1303.20593	642.65686	1476.49792	-838.20966	633.09802	1294.52588	-738.33008	674.15399	1152.47058	-703.58142	755.35596	1060.10779	-697.51483	855.75317	976.69464	-731.18542	820.66467	947.40558	-696.9635	885.23749	916.29309	-699.57391	784.92731	974.93457	-1125.23206	732.56476	948.75409	-871.00928	560.83685	1009.90741	-1083.39905	534.0224	1008.50006	-973.43604	806.37024	682.78516	-1212.68738	856.20172	490.02896	-1191.1322	884.64032	300.33408	-1214.06201	982.22906	94.29802	-1194.66199	953.16541	48.8698	-1151.88538	1135.27087	117.91035	-1167.73572	586.34998	650.67084	-849.8717	540.15082	447.7128	-905.53149	437.16528	288.42227	-917.45758	357.63107	114.51006	-970.43066	312.4339	70.69633	-1031.47961	494.65292	38.7291	-952.12781	640.26971	1782.67822	-992.67615	NaN	NaN	NaN	NaN	NaN	NaN
